<?xml version="1.0" standalone="no"?>
<!DOCTYPE svg PUBLIC "-//W3C//DTD SVG 20010904//EN"
 "http://www.w3.org/TR/2001/REC-SVG-20010904/DTD/svg10.dtd">
<svg version="1.0" xmlns="http://www.w3.org/2000/svg"
 width="394.000000pt" height="394.000000pt" viewBox="0 0 394.000000 394.000000"
 preserveAspectRatio="xMidYMid meet">
<metadata>
Created by potrace 1.11, written by Peter Selinger 2001-2013
</metadata>
<g transform="translate(0.000000,394.000000) scale(0.100000,-0.100000)"
fill="#000000" stroke="none">
<path d="M3331 3664 c-92 -19 -185 -60 -260 -117 -32 -25 -97 -63 -144 -85
-47 -22 -102 -53 -122 -69 -68 -53 -165 -222 -165 -288 0 -30 -7 -35 -72 -42
-59 -6 -96 -22 -149 -64 l-36 -28 -22 55 c-13 30 -40 75 -62 101 -119 145
-289 219 -478 211 -105 -5 -137 -16 -200 -73 -32 -29 -45 -34 -82 -33 -55 1
-89 -16 -157 -77 -71 -64 -150 -187 -188 -290 -9 -27 -18 -51 -20 -53 -1 -2
-27 15 -57 36 -112 78 -301 96 -517 48 -93 -21 -151 -28 -227 -27 -79 0 -104
-3 -114 -15 -10 -12 -10 -19 -1 -32 23 -32 82 -163 108 -240 66 -194 194 -348
327 -391 28 -10 36 -17 33 -29 -3 -10 -6 -54 -8 -99 -5 -187 100 -312 293
-352 31 -7 74 -21 95 -31 21 -11 44 -20 50 -20 9 0 9 -10 3 -37 -12 -51 -2
-117 28 -181 14 -29 23 -54 22 -56 -2 -1 -32 -13 -66 -25 -166 -61 -314 -212
-368 -376 -23 -69 -35 -144 -42 -251 l-6 -104 26 0 c15 0 27 4 27 10 0 43 193
86 445 99 228 11 297 28 401 95 91 59 172 174 209 296 18 61 57 96 115 102
l31 3 2 -115 c2 -100 6 -124 31 -185 16 -38 43 -90 61 -115 18 -25 47 -70 64
-101 17 -31 55 -79 84 -106 50 -47 158 -123 176 -123 4 0 36 -18 70 -40 76
-49 201 -88 331 -102 56 -6 130 -22 180 -40 47 -16 99 -30 115 -31 l30 -2 6
120 c4 66 12 165 19 220 20 159 9 252 -50 429 -28 82 -62 170 -77 195 -41 70
-109 137 -180 177 -35 20 -63 37 -61 39 2 1 35 26 73 55 78 57 107 88 135 141
13 25 28 38 47 42 43 9 108 60 129 103 15 32 19 66 22 191 3 142 1 155 -20
196 -21 41 -80 100 -138 138 l-24 16 22 31 c36 49 70 132 82 199 l12 62 52 10
c28 6 67 13 87 16 59 11 132 59 191 127 65 75 94 120 132 208 26 60 29 80 36
245 9 181 29 296 66 367 21 41 6 57 -49 51 -23 -3 -80 2 -126 11 -96 18 -84
18 -180 0z"/>
</g>
</svg>
